<?xml version="1.0" encoding="UTF-8"?>
<svg viewBox="0 0 1200 650" xmlns="http://www.w3.org/2000/svg">
    <style>
        @import url('https://fonts.googleapis.com/css2?family=Red+Hat+Display:wght@400;500;600;700;900&amp;family=Red+Hat+Text:wght@400;500;600&amp;display=swap');
    </style>
    
    <defs>
        <linearGradient id="grad-registry" x1="0%" y1="0%" x2="100%" y2="100%">
            <stop offset="0%" style="stop-color:#d32f2f;stop-opacity:1" />
            <stop offset="100%" style="stop-color:#f44336;stop-opacity:1" />
        </linearGradient>
        <filter id="shadow" x="-10%" y="-10%" width="120%" height="120%">
            <feDropShadow dx="0" dy="3" stdDeviation="4" flood-opacity="0.15"/>
        </filter>
        <marker id="arrow-push" markerWidth="8" markerHeight="6" refX="7" refY="3" orient="auto">
            <polygon points="0 0, 8 3, 0 6" fill="#43a047"/>
        </marker>
        <marker id="arrow-pull" markerWidth="8" markerHeight="6" refX="1" refY="3" orient="auto">
            <polygon points="8 0, 0 3, 8 6" fill="#1976d2"/>
        </marker>
    </defs>

    <!-- Title - cores claras para fundo escuro -->
    <text x="600" y="35" text-anchor="middle" fill="#ffffff" font-weight="700" font-size="20" font-family="'Red Hat Display', Arial, sans-serif">Collaboration Model — Contribute Once, Deploy Everywhere</text>

    <!-- ==================== CONTRIBUTORS (LEFT SIDE) ==================== -->
    <g class="contributors-section">
        <text x="150" y="75" text-anchor="middle" fill="#2e7d32" font-weight="700" font-size="14" font-family="'Red Hat Display', Arial, sans-serif">CONTRIBUTORS</text>
        <text x="150" y="92" text-anchor="middle" fill="#b0bec5" font-size="11" font-family="'Red Hat Text', Arial, sans-serif">(Each develops a module)</text>

        <!-- Portugal - DNOTAM -->
        <rect x="30" y="115" width="240" height="90" rx="10" fill="#e3f2fd" stroke="#1565c0" stroke-width="2" filter="url(#shadow)"/>
        <rect x="30" y="115" width="240" height="30" rx="10" fill="#1565c0"/>
        <rect x="30" y="135" width="240" height="10" fill="#1565c0"/>
        <!-- Portugal Flag -->
        <rect x="42" y="123" width="22" height="14" rx="2" fill="#006600"/>
        <rect x="50" y="123" width="14" height="14" rx="0" fill="#ff0000"/>
        <circle cx="50" cy="130" r="4" fill="#ffcc00"/>
        <text x="72" y="137" fill="#fff" font-weight="600" font-size="12" font-family="'Red Hat Display', Arial, sans-serif">NAV Portugal</text>
        <text x="150" y="165" text-anchor="middle" fill="#1565c0" font-size="11" font-family="'Red Hat Text', Arial, sans-serif">Develops and Maintains</text>
        <rect x="70" y="175" width="160" height="22" rx="4" fill="#1565c0"/>
        <text x="150" y="190" text-anchor="middle" fill="#fff" font-size="10" font-weight="500" font-family="'Red Hat Text', Arial, sans-serif">swim-dnotam-consumer</text>

        <!-- Austria - AMAN -->
        <rect x="30" y="225" width="240" height="90" rx="10" fill="#e8f5e9" stroke="#2e7d32" stroke-width="2" filter="url(#shadow)"/>
        <rect x="30" y="225" width="240" height="30" rx="10" fill="#2e7d32"/>
        <rect x="30" y="245" width="240" height="10" fill="#2e7d32"/>
        <!-- Austria Flag -->
        <rect x="42" y="233" width="22" height="14" rx="2" fill="#ed2939"/>
        <rect x="42" y="237" width="22" height="6" fill="#ffffff"/>
        <text x="72" y="247" fill="#fff" font-weight="600" font-size="12" font-family="'Red Hat Display', Arial, sans-serif">Austro Control</text>
        <text x="150" y="275" text-anchor="middle" fill="#2e7d32" font-size="11" font-family="'Red Hat Text', Arial, sans-serif">Develops and Maintains</text>
        <rect x="70" y="285" width="160" height="22" rx="4" fill="#2e7d32"/>
        <text x="150" y="300" text-anchor="middle" fill="#fff" font-size="10" font-weight="500" font-family="'Red Hat Text', Arial, sans-serif">swim-aman-consumer</text>

        <!-- Sweden - MET -->
        <rect x="30" y="335" width="240" height="90" rx="10" fill="#fff3e0" stroke="#ef6c00" stroke-width="2" filter="url(#shadow)"/>
        <rect x="30" y="335" width="240" height="30" rx="10" fill="#ef6c00"/>
        <rect x="30" y="355" width="240" height="10" fill="#ef6c00"/>
        <!-- Sweden Flag -->
        <rect x="42" y="343" width="22" height="14" rx="2" fill="#006aa7"/>
        <rect x="48" y="343" width="3" height="14" fill="#fecc00"/>
        <rect x="42" y="348" width="22" height="3" fill="#fecc00"/>
        <text x="72" y="357" fill="#fff" font-weight="600" font-size="12" font-family="'Red Hat Display', Arial, sans-serif">LFV Sweden</text>
        <text x="150" y="385" text-anchor="middle" fill="#e65100" font-size="11" font-family="'Red Hat Text', Arial, sans-serif">Develops and Maintains</text>
        <rect x="70" y="395" width="160" height="22" rx="4" fill="#ef6c00"/>
        <text x="150" y="410" text-anchor="middle" fill="#fff" font-size="10" font-weight="500" font-family="'Red Hat Text', Arial, sans-serif">swim-met-consumer</text>
    </g>

    <!-- ==================== PUSH ARROWS ==================== -->
    <g class="push-arrows">
        <line x1="275" y1="160" x2="400" y2="200" stroke="#43a047" stroke-width="2" marker-end="url(#arrow-push)"/>
        <line x1="275" y1="270" x2="400" y2="270" stroke="#43a047" stroke-width="2" marker-end="url(#arrow-push)"/>
        <line x1="275" y1="380" x2="400" y2="340" stroke="#43a047" stroke-width="2" marker-end="url(#arrow-push)"/>
        
        <text x="340" y="175" fill="#43a047" font-size="10" font-weight="600" font-family="'Red Hat Text', Arial, sans-serif">push</text>
        <text x="340" y="260" fill="#43a047" font-size="10" font-weight="600" font-family="'Red Hat Text', Arial, sans-serif">push</text>
        <text x="340" y="365" fill="#43a047" font-size="10" font-weight="600" font-family="'Red Hat Text', Arial, sans-serif">push</text>
    </g>

    <!-- ==================== REGISTRY (CENTER) ==================== -->
    <g class="registry-section">
        <rect x="410" y="120" width="380" height="310" rx="12" fill="#ffebee" stroke="#d32f2f" stroke-width="2" filter="url(#shadow)"/>
        <rect x="410" y="120" width="380" height="40" rx="12" fill="url(#grad-registry)"/>
        <rect x="410" y="148" width="380" height="12" fill="url(#grad-registry)"/>
        <!-- Container icon -->
        <rect x="520" y="133" width="18" height="14" rx="2" fill="#fff"/>
        <rect x="522" y="135" width="14" height="3" fill="#c62828"/>
        <rect x="522" y="140" width="14" height="3" fill="#c62828"/>
        <text x="545" y="148" fill="#fff" font-weight="700" font-size="14" font-family="'Red Hat Display', Arial, sans-serif">Quay.io Container Registry</text>
        <text x="600" y="185" text-anchor="middle" fill="#c62828" font-size="11" font-family="'Red Hat Text', Arial, sans-serif">quay.io/swim-developer</text>

        <!-- Container Images -->
        <rect x="440" y="205" width="320" height="55" rx="8" fill="#fff" stroke="#1565c0" stroke-width="2"/>
        <rect x="455" y="215" width="35" height="35" rx="6" fill="#1565c0"/>
        <rect x="461" y="221" width="23" height="6" rx="1" fill="#fff"/>
        <rect x="461" y="230" width="23" height="6" rx="1" fill="#fff"/>
        <rect x="461" y="239" width="23" height="6" rx="1" fill="#fff"/>
        <text x="510" y="230" fill="#1565c0" font-weight="600" font-size="12" font-family="'Red Hat Display', Arial, sans-serif">swim-dnotam-consumer:1.2.0</text>
        <text x="510" y="248" fill="#666" font-size="10" font-family="'Red Hat Text', Arial, sans-serif">AIXM 5.1.1 - XSD + Business Rules - Scenario routing</text>

        <rect x="440" y="270" width="320" height="55" rx="8" fill="#fff" stroke="#2e7d32" stroke-width="2"/>
        <rect x="455" y="280" width="35" height="35" rx="6" fill="#2e7d32"/>
        <rect x="461" y="286" width="23" height="6" rx="1" fill="#fff"/>
        <rect x="461" y="295" width="23" height="6" rx="1" fill="#fff"/>
        <rect x="461" y="304" width="23" height="6" rx="1" fill="#fff"/>
        <text x="510" y="295" fill="#2e7d32" font-weight="600" font-size="12" font-family="'Red Hat Display', Arial, sans-serif">swim-aman-consumer:0.8.0</text>
        <text x="510" y="313" fill="#666" font-size="10" font-family="'Red Hat Text', Arial, sans-serif">FIXM - Airport routing - Sequence processing</text>

        <rect x="440" y="335" width="320" height="55" rx="8" fill="#fff" stroke="#ef6c00" stroke-width="2"/>
        <rect x="455" y="345" width="35" height="35" rx="6" fill="#ef6c00"/>
        <rect x="461" y="351" width="23" height="6" rx="1" fill="#fff"/>
        <rect x="461" y="360" width="23" height="6" rx="1" fill="#fff"/>
        <rect x="461" y="369" width="23" height="6" rx="1" fill="#fff"/>
        <text x="510" y="360" fill="#e65100" font-weight="600" font-size="12" font-family="'Red Hat Display', Arial, sans-serif">swim-met-consumer:0.5.0</text>
        <text x="510" y="378" fill="#666" font-size="10" font-family="'Red Hat Text', Arial, sans-serif">IWXXM - Weather routing - METAR/TAF processing</text>

        <!-- Security badges -->
        <rect x="440" y="400" width="75" height="20" rx="4" fill="#e8f5e9" stroke="#43a047" stroke-width="1"/>
        <text x="477" y="414" text-anchor="middle" fill="#2e7d32" font-size="9" font-weight="500" font-family="'Red Hat Text', Arial, sans-serif">Scanned</text>
        
        <rect x="525" y="400" width="65" height="20" rx="4" fill="#e3f2fd" stroke="#1976d2" stroke-width="1"/>
        <text x="557" y="414" text-anchor="middle" fill="#1565c0" font-size="9" font-weight="500" font-family="'Red Hat Text', Arial, sans-serif">Signed</text>
        
        <rect x="600" y="400" width="80" height="20" rx="4" fill="#fff3e0" stroke="#ff9800" stroke-width="1"/>
        <text x="640" y="414" text-anchor="middle" fill="#e65100" font-size="9" font-weight="500" font-family="'Red Hat Text', Arial, sans-serif">Immutable</text>
    </g>

    <!-- ==================== PULL ARROWS ==================== -->
    <g class="pull-arrows">
        <line x1="795" y1="200" x2="920" y2="160" stroke="#1976d2" stroke-width="2" marker-end="url(#arrow-pull)"/>
        <line x1="795" y1="270" x2="920" y2="270" stroke="#1976d2" stroke-width="2" marker-end="url(#arrow-pull)"/>
        <line x1="795" y1="340" x2="920" y2="380" stroke="#1976d2" stroke-width="2" marker-end="url(#arrow-pull)"/>
        
        <text x="855" y="175" fill="#1976d2" font-size="10" font-weight="600" font-family="'Red Hat Text', Arial, sans-serif">pull all</text>
        <text x="855" y="260" fill="#1976d2" font-size="10" font-weight="600" font-family="'Red Hat Text', Arial, sans-serif">pull all</text>
        <text x="855" y="365" fill="#1976d2" font-size="10" font-weight="600" font-family="'Red Hat Text', Arial, sans-serif">pull all</text>
    </g>

    <!-- ==================== CONSUMERS (RIGHT SIDE) ==================== -->
    <g class="consumers-section">
        <text x="1050" y="75" text-anchor="middle" fill="#1565c0" font-weight="700" font-size="14" font-family="'Red Hat Display', Arial, sans-serif">CONSUMERS</text>
        <text x="1050" y="92" text-anchor="middle" fill="#b0bec5" font-size="11" font-family="'Red Hat Text', Arial, sans-serif">(All use all modules)</text>

        <!-- Finland -->
        <rect x="930" y="115" width="240" height="90" rx="10" fill="#f5f5f5" stroke="#607d8b" stroke-width="2" filter="url(#shadow)"/>
        <rect x="930" y="115" width="240" height="30" rx="10" fill="#607d8b"/>
        <rect x="930" y="135" width="240" height="10" fill="#607d8b"/>
        <!-- Finland Flag -->
        <rect x="942" y="123" width="22" height="14" rx="2" fill="#ffffff"/>
        <rect x="948" y="123" width="4" height="14" fill="#003580"/>
        <rect x="942" y="128" width="22" height="4" fill="#003580"/>
        <text x="972" y="137" fill="#fff" font-weight="600" font-size="12" font-family="'Red Hat Display', Arial, sans-serif">Fintraffic ANS</text>
        <text x="1050" y="162" text-anchor="middle" fill="#546e7a" font-size="10" font-family="'Red Hat Text', Arial, sans-serif">Deploys all 3 consumers</text>
        <rect x="950" y="172" width="55" height="18" rx="3" fill="#1565c0"/>
        <rect x="1012" y="172" width="55" height="18" rx="3" fill="#2e7d32"/>
        <rect x="1074" y="172" width="55" height="18" rx="3" fill="#ef6c00"/>
        <text x="977" y="185" text-anchor="middle" fill="#fff" font-size="8" font-family="'Red Hat Text', Arial, sans-serif">DNOTAM</text>
        <text x="1039" y="185" text-anchor="middle" fill="#fff" font-size="8" font-family="'Red Hat Text', Arial, sans-serif">AMAN</text>
        <text x="1101" y="185" text-anchor="middle" fill="#fff" font-size="8" font-family="'Red Hat Text', Arial, sans-serif">MET</text>

        <!-- Ireland -->
        <rect x="930" y="225" width="240" height="90" rx="10" fill="#f5f5f5" stroke="#607d8b" stroke-width="2" filter="url(#shadow)"/>
        <rect x="930" y="225" width="240" height="30" rx="10" fill="#607d8b"/>
        <rect x="930" y="245" width="240" height="10" fill="#607d8b"/>
        <!-- Ireland Flag -->
        <rect x="942" y="233" width="7" height="14" rx="2" fill="#169b62"/>
        <rect x="949" y="233" width="8" height="14" fill="#ffffff"/>
        <rect x="957" y="233" width="7" height="14" rx="2" fill="#ff883e"/>
        <text x="972" y="247" fill="#fff" font-weight="600" font-size="12" font-family="'Red Hat Display', Arial, sans-serif">Irish Aviation Authority</text>
        <text x="1050" y="272" text-anchor="middle" fill="#546e7a" font-size="10" font-family="'Red Hat Text', Arial, sans-serif">Deploys all 3 consumers</text>
        <rect x="950" y="282" width="55" height="18" rx="3" fill="#1565c0"/>
        <rect x="1012" y="282" width="55" height="18" rx="3" fill="#2e7d32"/>
        <rect x="1074" y="282" width="55" height="18" rx="3" fill="#ef6c00"/>
        <text x="977" y="295" text-anchor="middle" fill="#fff" font-size="8" font-family="'Red Hat Text', Arial, sans-serif">DNOTAM</text>
        <text x="1039" y="295" text-anchor="middle" fill="#fff" font-size="8" font-family="'Red Hat Text', Arial, sans-serif">AMAN</text>
        <text x="1101" y="295" text-anchor="middle" fill="#fff" font-size="8" font-family="'Red Hat Text', Arial, sans-serif">MET</text>

        <!-- Slovenia -->
        <rect x="930" y="335" width="240" height="90" rx="10" fill="#f5f5f5" stroke="#607d8b" stroke-width="2" filter="url(#shadow)"/>
        <rect x="930" y="335" width="240" height="30" rx="10" fill="#607d8b"/>
        <rect x="930" y="355" width="240" height="10" fill="#607d8b"/>
        <!-- Slovenia Flag -->
        <rect x="942" y="343" width="22" height="5" fill="#ffffff"/>
        <rect x="942" y="348" width="22" height="5" fill="#0000ff"/>
        <rect x="942" y="353" width="22" height="4" rx="2" fill="#ff0000"/>
        <text x="972" y="357" fill="#fff" font-weight="600" font-size="12" font-family="'Red Hat Display', Arial, sans-serif">Slovenia Control</text>
        <text x="1050" y="382" text-anchor="middle" fill="#546e7a" font-size="10" font-family="'Red Hat Text', Arial, sans-serif">Deploys all 3 consumers</text>
        <rect x="950" y="392" width="55" height="18" rx="3" fill="#1565c0"/>
        <rect x="1012" y="392" width="55" height="18" rx="3" fill="#2e7d32"/>
        <rect x="1074" y="392" width="55" height="18" rx="3" fill="#ef6c00"/>
        <text x="977" y="405" text-anchor="middle" fill="#fff" font-size="8" font-family="'Red Hat Text', Arial, sans-serif">DNOTAM</text>
        <text x="1039" y="405" text-anchor="middle" fill="#fff" font-size="8" font-family="'Red Hat Text', Arial, sans-serif">AMAN</text>
        <text x="1101" y="405" text-anchor="middle" fill="#fff" font-size="8" font-family="'Red Hat Text', Arial, sans-serif">MET</text>
    </g>

    <!-- ==================== BOTTOM: DEPLOY MODEL ==================== -->
    <g class="deploy-model">
        <rect x="30" y="460" width="1140" height="175" rx="12" fill="#e8f5e9" stroke="#43a047" stroke-width="2" filter="url(#shadow)"/>
        <rect x="30" y="460" width="1140" height="35" rx="12" fill="#43a047"/>
        <rect x="30" y="485" width="1140" height="10" fill="#43a047"/>
        <text x="600" y="485" text-anchor="middle" fill="#fff" font-weight="700" font-size="13" font-family="'Red Hat Display', Arial, sans-serif">Same Container, Different Configurations — Deploy via Environment Variables</text>

        <!-- Configuration Examples -->
        <rect x="60" y="510" width="260" height="110" rx="8" fill="#fff" stroke="#81c784" stroke-width="1.5"/>
        <!-- Finland Flag mini -->
        <rect x="165" y="518" width="16" height="10" rx="1" fill="#ffffff" stroke="#ccc" stroke-width="0.5"/>
        <rect x="170" y="518" width="3" height="10" fill="#003580"/>
        <rect x="165" y="522" width="16" height="3" fill="#003580"/>
        <text x="190" y="528" fill="#2e7d32" font-weight="600" font-size="11" font-family="'Red Hat Display', Arial, sans-serif">Finland</text>
        <rect x="75" y="545" width="230" height="60" rx="4" fill="#f5f5f5"/>
        <text x="190" y="565" text-anchor="middle" fill="#546e7a" font-size="9" font-family="'Red Hat Mono', monospace">AISP_URL=https://ead.eurocontrol.int</text>
        <text x="190" y="580" text-anchor="middle" fill="#546e7a" font-size="9" font-family="'Red Hat Mono', monospace">KAFKA_BROKERS=kafka.fintraffic.fi</text>
        <text x="190" y="595" text-anchor="middle" fill="#546e7a" font-size="9" font-family="'Red Hat Mono', monospace">MONGO_URI=mongodb://db.fintraffic.fi</text>

        <rect x="350" y="510" width="260" height="110" rx="8" fill="#fff" stroke="#81c784" stroke-width="1.5"/>
        <!-- Ireland Flag mini -->
        <rect x="455" y="518" width="5" height="10" rx="1" fill="#169b62"/>
        <rect x="460" y="518" width="6" height="10" fill="#ffffff"/>
        <rect x="466" y="518" width="5" height="10" rx="1" fill="#ff883e"/>
        <text x="480" y="528" fill="#2e7d32" font-weight="600" font-size="11" font-family="'Red Hat Display', Arial, sans-serif">Ireland</text>
        <rect x="365" y="545" width="230" height="60" rx="4" fill="#f5f5f5"/>
        <text x="480" y="565" text-anchor="middle" fill="#546e7a" font-size="9" font-family="'Red Hat Mono', monospace">AISP_URL=https://ead.eurocontrol.int</text>
        <text x="480" y="580" text-anchor="middle" fill="#546e7a" font-size="9" font-family="'Red Hat Mono', monospace">KAFKA_BROKERS=kafka.iaa.ie</text>
        <text x="480" y="595" text-anchor="middle" fill="#546e7a" font-size="9" font-family="'Red Hat Mono', monospace">MONGO_URI=mongodb://db.iaa.ie</text>

        <rect x="640" y="510" width="260" height="110" rx="8" fill="#fff" stroke="#81c784" stroke-width="1.5"/>
        <!-- Slovenia Flag mini -->
        <rect x="745" y="518" width="16" height="3" fill="#ffffff"/>
        <rect x="745" y="521" width="16" height="4" fill="#0000ff"/>
        <rect x="745" y="525" width="16" height="3" fill="#ff0000"/>
        <text x="770" y="528" fill="#2e7d32" font-weight="600" font-size="11" font-family="'Red Hat Display', Arial, sans-serif">Slovenia</text>
        <rect x="655" y="545" width="230" height="60" rx="4" fill="#f5f5f5"/>
        <text x="770" y="565" text-anchor="middle" fill="#546e7a" font-size="9" font-family="'Red Hat Mono', monospace">AISP_URL=https://ead.eurocontrol.int</text>
        <text x="770" y="580" text-anchor="middle" fill="#546e7a" font-size="9" font-family="'Red Hat Mono', monospace">KAFKA_BROKERS=kafka.sloveniacontrol.si</text>
        <text x="770" y="595" text-anchor="middle" fill="#546e7a" font-size="9" font-family="'Red Hat Mono', monospace">MONGO_URI=mongodb://db.slov.si</text>

        <!-- Key message -->
        <rect x="930" y="510" width="210" height="110" rx="8" fill="#e3f2fd" stroke="#1976d2" stroke-width="2"/>
        <text x="1035" y="545" text-anchor="middle" fill="#1565c0" font-weight="700" font-size="24" font-family="'Red Hat Display', Arial, sans-serif">3 -&gt; N</text>
        <text x="1035" y="570" text-anchor="middle" fill="#1565c0" font-size="11" font-family="'Red Hat Text', Arial, sans-serif">3 contributors develop</text>
        <text x="1035" y="587" text-anchor="middle" fill="#1565c0" font-size="11" font-family="'Red Hat Text', Arial, sans-serif">N entities benefit</text>
        <text x="1035" y="610" text-anchor="middle" fill="#1976d2" font-weight="600" font-size="10" font-family="'Red Hat Text', Arial, sans-serif">Collaboration, not competition</text>
    </g>
</svg>

